<svg id="Camada_1" data-name="Camada 1" xmlns="http://www.w3.org/2000/svg" viewBox="0 0 84 84"><defs><style>.cls-1{fill:#fff;}</style></defs><title>alerta </title><path class="cls-1" d="M45.12,54.84a3,3,0,0,1-3,2.67h-.32a3,3,0,0,1-3-2.67h6.24m3-2.71H35.89l.3,3a5.65,5.65,0,0,0,5.65,5.12h.32a5.65,5.65,0,0,0,5.65-5.12l.3-3Z"/><path class="cls-1" d="M42.16,26.49A1.79,1.79,0,0,1,44,28.27v1.91l.86.25a9.52,9.52,0,0,1,6.87,9.14V46.7a2.38,2.38,0,0,0,2.37,2.38,1.19,1.19,0,0,1,1.19,1.19v1.19H28.76V50.27A1.19,1.19,0,0,1,30,49.08a2.38,2.38,0,0,0,2.37-2.38V39.57a9.52,9.52,0,0,1,6.87-9.14l.86-.25V28.27a1.79,1.79,0,0,1,1.79-1.78l.16,0,.16,0m0-2.71h-.32a4.49,4.49,0,0,0-4.49,4.42,12.27,12.27,0,0,0-7.73,11.37v6.82a3.9,3.9,0,0,0-3.57,3.88v3.89H58V50.27a3.9,3.9,0,0,0-3.57-3.88V39.57A12.27,12.27,0,0,0,46.65,28.2a4.49,4.49,0,0,0-4.49-4.42Z"/></svg>