<svg id="Camada_1" data-name="Camada 1" xmlns="http://www.w3.org/2000/svg" viewBox="0 0 84 84"><defs><style>.cls-1{fill:none;stroke:#fff;stroke-miterlimit:10;stroke-width:2.71px;}</style></defs><title>auto</title><path class="cls-1" d="M28,35.23a.92.92,0,0,0-.94-.9l-4.53.06a.92.92,0,0,0-.91.93l0,1.89a.92.92,0,0,0,.93.91l3.32,0,1.8.32,1-.61L28,36.37ZM61.4,33.84l-4.54.06a.92.92,0,0,0-.9.93V36l-.56,1.24,1.16.94,1.57-.54,3.31,0a.92.92,0,0,0,.91-.93l0-1.89A.91.91,0,0,0,61.4,33.84Z"/><path class="cls-1" d="M28.49,37.6l.41-3.14c.54-4.39,3.42-8.2,7.74-8.26l10.42-.15c4.32-.06,7.2,3.74,8,8l.52,3.26"/><path class="cls-1" d="M52.5,36.72l-4.18-.32a70.66,70.66,0,0,0-13.64.25L31.34,37a7.19,7.19,0,0,0-6.54,7.12l.07,5.35a4.91,4.91,0,0,0,3.1,4.6v.46a3.46,3.46,0,0,0,3.5,3.4l1,0c2.11,0,3.83-1.24,3.89-3.33l11.91-.17c.12,2.09,1.87,3.25,4,3.22h.49a3.91,3.91,0,0,0,3.86-4h0a4.9,4.9,0,0,0,3-4.68l-.08-5.35A7.22,7.22,0,0,0,52.5,36.72Z"/><circle class="cls-1" cx="33.03" cy="45.92" r="2.9"/><circle class="cls-1" cx="51.25" cy="45.66" r="2.9"/></svg>