<svg id="Camada_1" data-name="Camada 1" xmlns="http://www.w3.org/2000/svg" viewBox="0 0 337 84"><defs><style>.cls-1{fill:none;stroke:#fff;stroke-miterlimit:10;stroke-width:2.01px;}.cls-2{fill:#fff;}</style></defs><title>logo</title><path class="cls-1" d="M37,65.67c-.1,0-10.56-.11-10.56-10.55V18.33H63.16c.1,0,10.56.11,10.56,10.55V65.67Z"/><rect class="cls-2" x="45.66" y="47" width="2.3" height="11.76"/><rect class="cls-2" x="50.04" y="42.61" width="3.76" height="16.15"/><path class="cls-2" d="M43.59,31.37a11.83,11.83,0,0,1,10.18-2.49,10.91,10.91,0,0,1,5,2.35s.32.3.57.05c0,0,.31-.24,0-.61A11.32,11.32,0,0,0,53.76,27a14.52,14.52,0,0,0-10.19.63,10.68,10.68,0,0,0-4.93,4.91,28.62,28.62,0,0,0-4.4,1.87s-.55.22-.34.65c0,0,.18.31.66.08a34.6,34.6,0,0,1,3.44-1,13,13,0,0,0,3.6,13.39.48.48,0,0,0,.6.09.38.38,0,0,0,.08-.52,14.82,14.82,0,0,1-2-5.1,12.27,12.27,0,0,1,1.46-8.5s6.46-.91,12,1.17c0,0,9.36,3.05,7,8.72a8.59,8.59,0,0,1-3.27,3.74s-.43.26-.2.62a.51.51,0,0,0,.64.1s4-1.29,5.67-4.47c0,0,3.46-5.3-4.71-9.62a22.49,22.49,0,0,0-5.14-1.84,29.91,29.91,0,0,0-10.17-.54"/><path class="cls-2" d="M196.34,48.61c-.06-.17-.09-.28-.11-.28l-.21.1a4.7,4.7,0,0,1-2.2.53,3.78,3.78,0,0,1-3.75-4c0-2.68,1.46-4.13,3.46-4.13a4.4,4.4,0,0,1,2.62.77,10.31,10.31,0,0,1,1.64-3.36,10,10,0,0,0-1.41-.82h0a8,8,0,0,0-3.31-.68c-4.41,0-7.77,3-7.77,8.14s3.36,8.1,7.77,8.1a10.63,10.63,0,0,0,3.76-.69c.36-.14.94-.4,1.18-.52a13,13,0,0,1-1.67-3.16"/><path class="cls-2" d="M100.1,40.05h1.75c1.56,0,3.18-.45,3.18-2.21,0-1.91-1.54-2.08-3.13-2.08h-1.8v4.29Zm0,8.64h1.83c1.74,0,3.56-.3,3.56-2.42S103.62,43.8,102,43.8H100.1v4.89ZM95.33,31.82H104c3.33,0,5.82,1.7,5.82,5.27A4.64,4.64,0,0,1,106.64,42V42a4.27,4.27,0,0,1,3.62,4.59c0,5-3.77,6-7,6h-8V31.82Z"/><path class="cls-2" d="M146.63,48.87c1.54,0,2.81-1.7,2.81-4s-1.12-4-2.81-4-2.79,1.79-2.79,3.85c0,2.47,1,4.17,2.79,4.17m7.43,3.75H149.8V50.29h0A5,5,0,0,1,145.17,53c-4,0-6.1-3.81-6.1-8.4,0-3.82,2-7.85,5.72-7.85a5,5,0,0,1,4.58,2.37h0V31.77h4.64V52.62Z"/><path class="cls-2" d="M209.32,44.88c0-2.33-.87-4.38-3-4.38s-3,2-3,4.38.88,4.35,3,4.35,3-2.06,3-4.35m-10.77,0c0-5.16,3.36-8.14,7.77-8.14s7.77,3,7.77,8.14-3.36,8.1-7.77,8.1-7.77-3-7.77-8.1Z"/><path class="cls-2" d="M132.39,47.7a3.15,3.15,0,0,1-2.87,1.61,1.71,1.71,0,0,1-1.9-1.7c0-1.49,1.23-2.06,2.8-2.06.69,0,1.38.06,2,.09V47.7Zm4.54,4.92a21.46,21.46,0,0,1-.26-3.66V43.18c0-4.74-2.95-6.45-6.36-6.45a12.13,12.13,0,0,0-5.25,1.08v3.67a7.67,7.67,0,0,1,4.26-1.16c1.66,0,3,.56,3.05,2.68a11.72,11.72,0,0,0-2.16-.21c-2.46,0-6.9.56-6.9,5.3,0,3.37,2.37,4.89,5,4.89a4.5,4.5,0,0,0,4.11-2.41v2Z"/><path class="cls-2" d="M121.06,36.74c-2,0-3.15,1.25-4,3.21h0V37.1h-4.21V52.62h4.62V46.07c0-3,1.19-4.87,3.34-5a4.43,4.43,0,0,1,1.58.25V37a4.33,4.33,0,0,0-1.34-.23"/><path class="cls-2" d="M161.06,43.38c.1-1.78.89-3.24,2.56-3.24,1.84,0,2.56,1.46,2.56,3.24Zm9.28,2.06c0-4.62-1.79-8.7-6.74-8.7-4.16,0-7.16,3-7.16,8.11S159.8,53,164.21,53a11.82,11.82,0,0,0,4.9-1V48.22A7.75,7.75,0,0,1,165,49.41c-2.25,0-3.66-.84-3.92-3h9.23v-1Z"/><path class="cls-2" d="M178.1,36.74c-2.67,0-5.7,1.46-5.7,5,0,5.6,6.57,3.75,6.57,6.38,0,1.07-.93,1.25-1.88,1.25a10.07,10.07,0,0,1-4.33-1.08V52a11.5,11.5,0,0,0,4.59.95c3,0,6.23-1,6.23-5.18,0-5.91-6.87-4-6.87-6.41,0-.87,1.13-1.1,2.13-1.07a7.73,7.73,0,0,1,3.69,1.15V37.66a11.49,11.49,0,0,0-4.43-.92"/><path class="cls-2" d="M231.4,37.11a7.44,7.44,0,0,0-3.28-.75c-1.4,0-3.05.52-3.05,2.42,0,3.48,7.5,2.68,7.5,8.66,0,3.88-2.88,5.42-6.38,5.42a11.27,11.27,0,0,1-3.57-.75l.25-2.43a10.12,10.12,0,0,0,3.62.89c1.43,0,3.43-.83,3.43-3,0-4.07-7.5-3-7.5-8.59,0-3.24,2.45-5,5.6-5a11.32,11.32,0,0,1,3.73.65l-.35,2.39Z"/><path class="cls-2" d="M243.88,44.64c0-2-1.15-3.7-3.18-3.7-2.3,0-3.25,2-3.43,3.7ZM245.41,52a9.45,9.45,0,0,1-4,.86c-4.52,0-6.6-2.86-6.6-7.18,0-3.93,2.38-6.72,6-6.72,4.25,0,5.63,3.23,5.63,7.5h-9.11a4.27,4.27,0,0,0,4.21,4.43,7.41,7.41,0,0,0,3.93-1.33V52Z"/><path class="cls-2" d="M258.35,46.06c0-2.75-1.22-5.12-3.72-5.12s-3.55,2.68-3.55,4.94c0,2.51,1.35,4.69,3.55,4.69s3.72-2,3.72-4.51M260.7,52c0,4-2,6.35-6.57,6.35a12.64,12.64,0,0,1-4.58-.91l.25-2.27a9.41,9.41,0,0,0,4.6,1.2c2.48,0,4-1.75,4-4.56v-1.3h-.05A5.22,5.22,0,0,1,254,52.55c-3.66,0-5.46-3.1-5.46-6.53s1.85-7.06,5.7-7.06c2.25,0,3.51.86,4.21,2.29h0v-2h2.17V52Z"/><path class="cls-2" d="M275.65,52.55h-2.27V50.44h-.05a4.55,4.55,0,0,1-4.18,2.42c-3.3,0-4.78-2.13-4.78-5.7V39.27h2.36v6.87c0,3.1.65,4.61,2.7,4.75,2.67,0,3.87-2.25,3.87-5.48V39.27h2.35V52.55Z"/><path class="cls-2" d="M279.36,39.27h2.2v2.06h.05A3.87,3.87,0,0,1,284.93,39a6.47,6.47,0,0,1,1.55.18v2.19a3.39,3.39,0,0,0-1.3-.24c-2.1,0-3.47,2.09-3.47,5.42v6h-2.35V39.27Z"/><path class="cls-2" d="M294.24,50.89c2.75,0,4-2.61,4-5s-1.47-5-4-5-4,2.45-4,5,1.22,5,4,5m0-11.93c3.88,0,6.48,2.92,6.48,6.95,0,3.8-2.65,7-6.48,7s-6.51-3.15-6.51-7c0-4,2.6-6.95,6.51-6.95Z"/><path class="cls-2" d="M302.79,49.94a6.06,6.06,0,0,0,2.93.94c1.07,0,2.4-.46,2.4-1.9,0-2.42-5.53-2.21-5.53-5.93,0-2.76,2-4.09,4.5-4.09a9.41,9.41,0,0,1,2.93.52l-.2,2.14a6.68,6.68,0,0,0-2.48-.68c-1.2,0-2.25.52-2.25,1.61,0,2.71,5.53,1.93,5.53,6.17,0,2.84-2.18,4.14-4.46,4.14a7.08,7.08,0,0,1-3.5-.73l.13-2.19Z"/></svg>