<svg id="Camada_1" data-name="Camada 1" xmlns="http://www.w3.org/2000/svg" viewBox="0 0 84 84"><defs><style>.cls-1{fill:none;stroke:#fff;stroke-miterlimit:10;stroke-width:2.71px;}</style></defs><title>saude</title><circle class="cls-1" cx="58.62" cy="39.37" r="1.67"/><path class="cls-1" d="M56,35c-3,7-14,14-14,14-11.26-7-14.3-14.57-14.3-14.57a8.83,8.83,0,0,1-.58-3.13A8.73,8.73,0,0,1,42,25h0A8.74,8.74,0,0,1,56,35"/><circle class="cls-1" cx="25.38" cy="39.37" r="1.67"/><path class="cls-1" d="M42,54.25s.52,9.24-5.71,6.84l-8.15-3.56"/><circle class="cls-1" cx="28.16" cy="57.53" r="3.61"/><path class="cls-1" d="M58.7,41.29C60,43.56,51.9,53.91,42,53.91h0c-9.9,0-18-10.35-16.7-12.62"/></svg>