<svg id="Camada_1" data-name="Camada 1" xmlns="http://www.w3.org/2000/svg" viewBox="0 0 84 84"><defs><style>.cls-1{fill:none;stroke:#fff;stroke-miterlimit:10;stroke-width:2.71px;}</style></defs><title>vida</title><path class="cls-1" d="M44.6,41.21h0A6,6,0,0,1,41.48,36,6.21,6.21,0,0,1,53.9,36a6,6,0,0,1-3.12,5.21h0a10.14,10.14,0,0,1,7.32,9.08l.63,8.65L53.24,61"/><path class="cls-1" d="M34.15,61.21a7.57,7.57,0,0,1,5.47-6.78h0a4.45,4.45,0,0,1-2.34-3.89,4.65,4.65,0,0,1,9.29,0,4.46,4.46,0,0,1-2.34,3.89h0a7.58,7.58,0,0,1,5.47,6.78H34.15"/><path class="cls-1" d="M38.28,43.94h0a5.49,5.49,0,0,0,2.87-4.78,5.72,5.72,0,0,0-11.39-.51h0v.07a.2.2,0,0,0,0,.07A3.75,3.75,0,0,1,27,42.21s.73,2.94,5.59,1.73h0a9.32,9.32,0,0,0-6.72,8.34l-.58,6.66,5.32,2.28"/><path class="cls-1" d="M42,22.78A21.15,21.15,0,0,0,22.74,34.1"/><path class="cls-1" d="M42,22.78A21.15,21.15,0,0,1,61.26,34.1"/></svg>