<svg id="Camada_1" data-name="Camada 1" xmlns="http://www.w3.org/2000/svg" viewBox="0 0 89 89"><defs><style>.cls-1{fill:none;stroke:#fff;stroke-linecap:round;stroke-linejoin:round;stroke-width:2.75px;opacity:0.5;}</style></defs><title>agencias</title><polyline class="cls-1" points="31.49 71.94 31.49 52.26 57.51 52.26 57.51 71.94"/><path class="cls-1" d="M30.8,37.86a6.85,6.85,0,0,1-13.7,0l7.44-20.8,40.26.17,7.1,20.63a6.85,6.85,0,0,1-13.7,0"/><path class="cls-1" d="M44.5,38.07a6.85,6.85,0,0,1-13.7,0"/><path class="cls-1" d="M58.2,38.07a6.85,6.85,0,0,1-13.7,0"/><polyline class="cls-1" points="66.97 44.44 66.97 71.94 22.91 71.94 22.91 44.63"/><line class="cls-1" x1="44.5" y1="71.94" x2="44.5" y2="52.26"/></svg>