<svg id="Camada_1" data-name="Camada 1" xmlns="http://www.w3.org/2000/svg" viewBox="0 0 89 89"><defs><style>.cls-1{fill:none;stroke:#fff;stroke-linecap:round;stroke-linejoin:round;stroke-width:2.87px;}</style></defs><title>atendimento</title><line class="cls-1" x1="29.63" y1="37.77" x2="48.13" y2="37.77"/><line class="cls-1" x1="29.63" y1="31.06" x2="48.13" y2="31.06"/><path class="cls-1" d="M26.54,45.24c-4-2.61-6.54-6.5-6.54-10.84,0-7.86,8.32-14.24,18.6-14.24S57.2,26.54,57.2,34.4,48.87,48.63,38.6,48.63c-.83,0-1.65,0-2.45-.12,0,0-2.41,4.09-12.88,5.49C23.27,54,24.94,51.47,26.54,45.24Z"/><path class="cls-1" d="M69,52.78c0-6.13-6.17-11.15-14-11.63-3,4.26-8.77,7.22-15.46,7.47a9.31,9.31,0,0,0-1,4.16c0,6.44,6.82,11.66,15.24,11.66a19.05,19.05,0,0,0,2-.1s2,3.35,10.55,4.5a26.14,26.14,0,0,1-2.68-7.18C66.92,59.52,69,56.33,69,52.78Z"/></svg>