<svg id="Camada_1" data-name="Camada 1" xmlns="http://www.w3.org/2000/svg" viewBox="0 0 89 89"><defs><style>.cls-1{opacity:0.5;}.cls-2{fill:none;stroke:#fff;stroke-linecap:round;stroke-linejoin:round;stroke-width:2.87px;}</style></defs><title>auto</title><g class="cls-1"><path class="cls-2" d="M16.76,31.08a1.82,1.82,0,0,0-1.85-1.79l-9,.13a1.82,1.82,0,0,0-1.79,1.85L4.18,35A1.82,1.82,0,0,0,6,36.8l6.58-.09,3.57.64,1.89-1.21-1.27-2.8ZM83,28.31l-9,.13a1.82,1.82,0,0,0-1.79,1.85l0,2.25L71.09,35l2.31,1.87,3.11-1.07,6.58-.09a1.82,1.82,0,0,0,1.79-1.85l-.05-3.74A1.82,1.82,0,0,0,83,28.31Z"/><path class="cls-2" d="M17.71,35.77l.8-6.22c1.09-8.7,6.78-16.26,15.36-16.38l20.66-.3c8.58-.12,14.28,7.41,15.82,15.94l1,6.47"/><path class="cls-2" d="M65.32,34,57,33.4A139.43,139.43,0,0,0,30,33.89l-6.63.74a14.28,14.28,0,0,0-13,14.12l.15,10.61a9.71,9.71,0,0,0,6.14,9.12v.91a6.84,6.84,0,0,0,6.94,6.74l1.89,0c4.19-.06,7.59-2.46,7.71-6.61l23.61-.34c.24,4.14,3.71,6.44,7.9,6.38h1a7.75,7.75,0,0,0,7.64-7.86h0a9.71,9.71,0,0,0,5.87-9.29l-.15-10.61C79,40.42,72.87,34.49,65.32,34Z"/><circle class="cls-2" cx="26.7" cy="52.28" r="5.74" transform="translate(-0.75 0.39) rotate(-0.82)"/><circle class="cls-2" cx="62.86" cy="51.76" r="5.74" transform="translate(-0.73 0.9) rotate(-0.82)"/></g></svg>