<?xml version="1.0" encoding="utf-8"?>
<!-- Generator: Adobe Illustrator 21.1.0, SVG Export Plug-In . SVG Version: 6.00 Build 0)  -->
<svg version="1.0" id="Camada_1" xmlns="http://www.w3.org/2000/svg" xmlns:xlink="http://www.w3.org/1999/xlink" x="0px" y="0px"
	 viewBox="0 0 417 92" style="enable-background:new 0 0 417 92;" xml:space="preserve">
<style type="text/css">
	.st0{fill:#9D0039;stroke:#FFFFFF;stroke-width:0.8471;stroke-miterlimit:10;}
	.st1{fill:#FFFFFF;}
</style>
<g>
	<path class="st0" d="M84.9,79.9H34.7c0,0-14.6,0-14.6-14.6V15.1h50.2c0,0,14.6,0,14.6,14.6V79.9L84.9,79.9z"/>
	<polygon class="st1" points="49.6,70.7 46.4,70.7 46.4,54.4 49.6,54.4 49.6,70.7 	"/>
	<polygon class="st1" points="57.7,70.7 52.5,70.7 52.5,48.3 57.7,48.3 57.7,70.7 	"/>
	<path class="st1" d="M43.5,32.7c0,0,5.3-5.1,14.1-3.4c0,0,3.9,0.6,6.9,3.3c0,0,0.4,0.4,0.8,0.1c0,0,0.4-0.3,0-0.9
		c0,0-2.6-3.6-7.6-5.1c0,0-7-2.5-14.2,0.9c0,0-4.4,1.8-6.9,6.8c0,0-3.5,1.1-6.1,2.6c0,0-0.8,0.3-0.5,0.9c0,0,0.2,0.4,0.9,0.1
		c0,0,2.4-0.8,4.8-1.4c0,0-1.9,4.9,0.1,10.9c0.9,2.7,2.5,5.4,4.9,7.7c0,0,0.4,0.4,0.8,0.1c0,0,0.4-0.3,0.1-0.7c0,0-1.9-2.9-2.7-7.1
		c-0.6-3.4-0.3-8.1,2-11.8c0,0,9-1.3,16.6,1.6c0,0,13,4.2,9.7,12.1c0,0-0.9,2.7-4.5,5.2c0,0-0.6,0.4-0.3,0.8c0,0,0.3,0.4,0.9,0.1
		c0,0,5.5-1.8,7.9-6.2c0,0,4.8-7.4-6.5-13.4c0,0-3.1-1.7-7.1-2.6C57.7,33.4,50.4,31.7,43.5,32.7"/>
	<path class="st1" d="M239.1,56.3c-0.1-0.2-0.1-0.4-0.2-0.4c-0.1,0-0.2,0.1-0.3,0.1c-0.6,0.3-1.6,0.7-3,0.7c-2.8,0-5.2-2.1-5.2-5.5
		c0-3.7,2-5.7,4.8-5.7c1.5,0,2.6,0.4,3.6,1.1c0.5-1.7,1.3-3.3,2.3-4.6c-0.4-0.3-1.1-0.7-2-1.1v0c-1.3-0.6-2.9-0.9-4.6-0.9
		c-6.1,0-10.8,4.1-10.8,11.3c0,7.1,4.6,11.2,10.8,11.2c3,0,5.2-1,5.2-1c0.5-0.2,1.3-0.6,1.6-0.7C240,58.8,239.3,57,239.1,56.3"/>
	<path class="st1" d="M105.9,44.5h2.4c2.2,0,4.4-0.6,4.4-3c0-2.6-2.1-2.9-4.3-2.9h-2.5V44.5L105.9,44.5z M105.9,56.4h2.5
		c2.4,0,4.9-0.4,4.9-3.3c0-3.1-2.6-3.4-4.9-3.4h-2.6V56.4L105.9,56.4z M99.3,33.1h12c4.6,0,8.1,2.3,8.1,7.3c0,3.6-1.6,5.7-4.4,6.7
		v0.1c3.3,0.8,5,2.8,5,6.4c0,6.9-5.2,8.3-9.7,8.3h-11V33.1L99.3,33.1z"/>
	<path class="st1" d="M170.3,56.7c2.1,0,3.9-2.3,3.9-5.5c0-3.3-1.6-5.6-3.9-5.6c-2.5,0-3.9,2.5-3.9,5.3
		C166.4,54.3,167.9,56.7,170.3,56.7 M180.6,61.9h-5.9v-3.2h-0.1c-1.2,2.4-3.6,3.7-6.3,3.7c-5.5,0-8.4-5.3-8.4-11.6
		c0-5.3,2.8-10.9,7.9-10.9c2.5,0,4.7,0.8,6.3,3.3h0.1V33h6.4V61.9L180.6,61.9z"/>
	<path class="st1" d="M257,51.1c0-3.2-1.2-6.1-4.1-6.1c-2.9,0-4.2,2.8-4.2,6.1c0,3.2,1.2,6,4.2,6C255.8,57.2,257,54.3,257,51.1
		 M242.1,51.1c0-7.1,4.6-11.3,10.8-11.3c6.1,0,10.7,4.1,10.7,11.3c0,7.1-4.6,11.2-10.7,11.2C246.8,62.4,242.1,58.2,242.1,51.1
		L242.1,51.1z"/>
	<path class="st1" d="M150.6,55c-0.8,1.5-2.2,2.2-4,2.2c-1.5,0-2.6-0.9-2.6-2.4c0-2.1,1.7-2.8,3.9-2.8c1,0,1.9,0.1,2.7,0.1V55
		L150.6,55z M156.9,61.9c-0.3-1.7-0.4-3.4-0.4-5.1v-8c0-6.6-4.1-8.9-8.8-8.9c-2.7,0-5,0.4-7.3,1.5v5l0,0.1c1.8-1.2,3.8-1.6,5.9-1.6
		c2.3,0,4.2,0.8,4.2,3.7c-0.8-0.2-2-0.3-3-0.3c-3.4,0-9.5,0.8-9.5,7.3c0,4.7,3.3,6.8,6.9,6.8c2.4,0,4.5-1.1,5.7-3.3v2.8H156.9
		L156.9,61.9z"/>
	<path class="st1" d="M134.9,39.9c-2.8,0-4.4,1.7-5.5,4.5h-0.1v-4h-5.8v21.5h6.4v-9.1c0-4.2,1.6-6.7,4.6-6.9c0.6,0,1.6,0.1,2.2,0.3
		v-6C136.2,40,135.5,39.9,134.9,39.9"/>
	<path class="st1" d="M190.2,49.1c0.1-2.5,1.2-4.5,3.5-4.5c2.5,0,3.5,2,3.5,4.5H190.2L190.2,49.1z M203.1,51.9c0-6.4-2.5-12-9.3-12
		c-5.7,0-9.9,4.1-9.9,11.2c0,7.1,4.7,11.3,10.7,11.3c2.4,0,4.7-0.4,6.8-1.4v-5.2c-1.9,1.2-3.9,1.6-5.6,1.6c-3.1,0-5.1-1.2-5.4-4.1
		h12.8V51.9L203.1,51.9z"/>
	<path class="st1" d="M213.8,39.9c-3.7,0-7.9,2-7.9,7c0,7.7,9.1,5.2,9.1,8.8c0,1.5-1.3,1.7-2.6,1.7c-2.3,0-4.5-0.7-6-1.5V61
		c1.7,0.7,3.7,1.3,6.4,1.3c4.2,0,8.6-1.4,8.6-7.2c0-8.2-9.5-5.5-9.5-8.9c0-1.2,1.6-1.5,2.9-1.5c1.5,0,3.8,0.6,5.1,1.6v-5.3
		C218,40.3,215.9,39.9,213.8,39.9"/>
	<path class="st1" d="M287.6,40.4c-1.8-0.7-2.7-1-4.5-1c-1.9,0-4.2,0.7-4.2,3.3c0,4.8,10.4,3.7,10.4,12c0,5.4-4,7.5-8.8,7.5
		c-1.7,0-3.4-0.5-5-1l0.4-3.4c1.2,0.5,3.3,1.2,5,1.2c2,0,4.7-1.2,4.7-4.1c0-5.6-10.4-4.1-10.4-11.9c0-4.5,3.4-6.8,7.8-6.8
		c1.6,0,3.5,0.3,5.2,0.9L287.6,40.4L287.6,40.4z"/>
	<path class="st1" d="M304.8,50.8c0-2.8-1.6-5.1-4.4-5.1c-3.2,0-4.5,2.7-4.7,5.1H304.8L304.8,50.8z M306.9,61
		c-1.2,0.5-2.7,1.2-5.6,1.2c-6.3,0-9.1-4-9.1-9.9c0-5.4,3.3-9.3,8.3-9.3c5.9,0,7.8,4.5,7.8,10.4h-12.6c0,3.6,2.7,6.1,5.8,6.1
		c2.1,0,4.6-1.2,5.4-1.8V61L306.9,61z"/>
	<path class="st1" d="M324.8,52.8c0-3.8-1.7-7.1-5.2-7.1c-3.3,0-4.9,3.7-4.9,6.8c0,3.5,1.9,6.5,4.9,6.5
		C322.7,59,324.8,56.2,324.8,52.8 M328.1,61c0,5.6-2.8,8.8-9.1,8.8c-1.9,0-3.5-0.3-6.3-1.3l0.3-3.1c2.5,1.2,4,1.7,6.4,1.7
		c3.4,0,5.5-2.4,5.5-6.3v-1.8h-0.1c-1.4,1.9-3.7,2.8-5.9,2.8c-5.1,0-7.5-4.3-7.5-9c0-4.7,2.6-9.8,7.9-9.8c3.1,0,4.8,1.2,5.8,3.2h0.1
		v-2.7h3V61L328.1,61z"/>
	<path class="st1" d="M348.8,61.8h-3.2v-2.9h-0.1c-1,2.1-3.3,3.4-5.8,3.4c-4.6,0-6.6-3-6.6-7.9V43.4h3.3v9.5c0,4.3,0.9,6.4,3.7,6.6
		c3.7,0,5.4-3.1,5.4-7.6v-8.5h3.3V61.8L348.8,61.8z"/>
	<path class="st1" d="M353.9,43.4h3v2.8h0.1c0.9-1.9,2.7-3.3,4.6-3.3c1,0,1.5,0.1,2.1,0.3v3c-0.6-0.3-1.2-0.3-1.8-0.3
		c-2.9,0-4.8,2.9-4.8,7.5v8.3h-3.3V43.4L353.9,43.4z"/>
	<path class="st1" d="M374.5,59.5c3.8,0,5.5-3.6,5.5-6.9c0-3.5-2-6.9-5.5-6.9c-3.5,0-5.5,3.4-5.5,6.9
		C369,55.8,370.7,59.5,374.5,59.5 M374.5,43c5.4,0,9,4,9,9.6c0,5.3-3.7,9.6-9,9.6c-5.3,0-9-4.4-9-9.6C365.5,47,369.1,43,374.5,43
		L374.5,43z"/>
	<path class="st1" d="M386.3,58.1c1.3,0.9,3.1,1.3,4.1,1.3c1.5,0,3.3-0.6,3.3-2.6c0-3.4-7.7-3.1-7.7-8.2c0-3.8,2.7-5.7,6.2-5.7
		c1.5,0,2.8,0.3,4,0.7l-0.3,3c-0.7-0.5-2.7-0.9-3.4-0.9c-1.7,0-3.1,0.7-3.1,2.2c0,3.7,7.7,2.7,7.7,8.5c0,3.9-3,5.7-6.2,5.7
		c-1.7,0-3.4-0.2-4.8-1L386.3,58.1L386.3,58.1z"/>
</g>
</svg>
