<svg id="Camada_1" data-name="Camada 1" xmlns="http://www.w3.org/2000/svg" viewBox="0 0 89 89"><defs><style>.cls-1{opacity:0.5;}.cls-2{fill:none;stroke:#fff;stroke-linecap:round;stroke-linejoin:round;stroke-width:2.87px;}</style></defs><title>saude</title><g class="cls-1"><circle class="cls-2" cx="73.12" cy="39.98" r="2.87"/><path class="cls-2" d="M68.68,32.41C63.54,44.47,44.51,56.47,44.51,56.47c-19.38-12-24.63-25.1-24.63-25.1a15.3,15.3,0,0,1-1-5.39,15,15,0,0,1,25.6-10.72h0A15,15,0,0,1,68.68,32.4"/><circle class="cls-2" cx="15.88" cy="39.98" r="2.87"/><path class="cls-2" d="M44.51,65.6s.9,15.92-9.82,11.77l-14-6.12"/><circle class="cls-2" cx="20.66" cy="71.25" r="6.22"/><path class="cls-2" d="M73.27,43.28C75.48,47.19,61.56,65,44.51,65h0c-17.05,0-31-17.83-28.76-21.74"/></g></svg>