<svg id="Camada_1" data-name="Camada 1" xmlns="http://www.w3.org/2000/svg" viewBox="0 0 89 89"><defs><style>.cls-1{opacity:0.5;}.cls-2{fill:none;stroke:#fff;stroke-linecap:round;stroke-linejoin:round;stroke-width:2.58px;}</style></defs><title>vida</title><g class="cls-1"><path class="cls-2" d="M48.69,43.23h0a9.6,9.6,0,0,1-5-8.38,10,10,0,0,1,20,0,9.59,9.59,0,0,1-5,8.37h0A16.31,16.31,0,0,1,70.39,57.82l1,13.92-8.83,3.37"/><path class="cls-2" d="M31.87,75.4a12.19,12.19,0,0,1,8.8-10.91h0a7.17,7.17,0,0,1-3.75-6.26,7.47,7.47,0,0,1,14.93,0,7.17,7.17,0,0,1-3.75,6.26h0a12.19,12.19,0,0,1,8.8,10.91h-25"/><path class="cls-2" d="M38.51,47.62h0a8.81,8.81,0,0,0,4.61-7.69,9.19,9.19,0,0,0-18.31-.81h0s0,0,0,.11,0,.07,0,.11a6.08,6.08,0,0,1-4.41,5.5s1.17,4.73,9,2.78h0A15,15,0,0,0,18.58,61l-.94,10.72,8.55,3.65"/><path class="cls-2" d="M44.5,13.6c-6,0-21.65,1.24-31,18.19"/><path class="cls-2" d="M44.5,13.6c6,0,21.65,1.24,31,18.19"/></g></svg>